<svg aria-hidden="true" style="position: absolute; width: 0; height: 0; overflow: hidden;" version="1.1" xmlns="http://www.w3.org/2000/svg" xmlns:xlink="http://www.w3.org/1999/xlink">
<defs>
<symbol id="icon-down" viewBox="0 0 512.011 512.011">
<path d="M505.755,123.592c-8.341-8.341-21.824-8.341-30.165,0L256.005,343.176L36.421,123.592c-8.341-8.341-21.824-8.341-30.165,0
			s-8.341,21.824,0,30.165l234.667,234.667c4.16,4.16,9.621,6.251,15.083,6.251c5.462,0,10.923-2.091,15.083-6.251l234.667-234.667
			C514.096,145.416,514.096,131.933,505.755,123.592z"/>
</symbol>
<symbol id="icon-area" viewBox="0 0 60 60">
<path id="Shape" d="m3.736 5.644c-.6256644-.62635283-1.56712103-.8139454-2.38507967-.47524572-.81795863.33869968-1.35120409 1.13693576-1.35092033 2.02224572v50.621c.00110264 1.207942.98005799 2.1868974 2.188 2.188h50.621c.88531.0002838 1.683546-.5329617 2.0222457-1.3509203.3386997-.8179587.1511071-1.7594153-.4752457-2.3850797zm49.247 52.239c-.0247758.0739311-.096185.1219477-.174.117h-6.809v-2c0-.5522847-.4477153-1-1-1s-1 .4477153-1 1v2h-4v-2c0-.5522847-.4477153-1-1-1s-1 .4477153-1 1v2h-4v-2c0-.5522847-.4477153-1-1-1s-1 .4477153-1 1v2h-4v-2c0-.5522847-.4477153-1-1-1s-1 .4477153-1 1v2h-4v-2c0-.5522847-.4477153-1-1-1s-1 .4477153-1 1v2h-4v-2c0-.5522847-.4477153-1-1-1s-1 .4477153-1 1v2h-4v-2c0-.5522847-.44771525-1-1-1s-1 .4477153-1 1v2h-5.812c-.10382953 0-.188-.0841705-.188-.188v-5.812h2c.55228475 0 1-.4477153 1-1s-.44771525-1-1-1h-2v-4h2c.55228475 0 1-.4477153 1-1s-.44771525-1-1-1h-2v-4h2c.55228475 0 1-.4477153 1-1s-.44771525-1-1-1h-2v-4h2c.55228475 0 1-.4477153 1-1s-.44771525-1-1-1h-2v-4h2c.55228475 0 1-.4477153 1-1s-.44771525-1-1-1h-2v-4h2c.55228475 0 1-.4477153 1-1s-.44771525-1-1-1h-2v-4h2c.55228475 0 1-.4477153 1-1s-.44771525-1-1-1h-2v-6.809c-.00473105-.07745126.0426869-.14857817.116-.174.02484813-.01114907.05176532-.01694137.079-.017.0486014.00063414.0946941.02168434.127.058l50.62 50.62c.0587103.0510497.0755597.1352963.041.205z"/><path id="Shape" d="m11.707 27.756c-.2859943-.2859079-.7160366-.3714219-1.0896546-.216678-.3736179.1547439-.6172591.5192821-.6173454.923678v20.537c0 .5522847.4477153 1 1 1h20.536c.4043959-.0000863.7689341-.2437275.923678-.6173454.1547439-.373618.0692299-.8036603-.216678-1.0896546zm.293 20.244v-17.123l17.122 17.123z"/><path id="Shape" d="m57.812 0h-50.621c-.88530996-.00028376-1.68354604.5329617-2.02224572 1.35092033-.33869968.81795864-.15110711 1.75941527.47524572 2.38507967l50.62 50.62c.6256644.6263528 1.567121.8139454 2.3850797.4752457.8179586-.3386997 1.3512041-1.1369357 1.3509203-2.0222457v-50.621c-.0011026-1.20794201-.980058-2.18689736-2.188-2.188zm.188 39.586-6.839 6.839-5.086-5.086 11.925-11.925zm0-13-13.339 13.339-5.086-5.086 18.425-18.425zm-24.586-24.586h10.172l-18.425 18.425-5.086-5.086zm-14.753 11.925-5.086-5.086 6.839-6.839h10.172zm27.753-11.925h10.172l-24.925 24.925-5.086-5.086zm11.586 1.415v10.171l-19.839 19.839-5.086-5.086zm-50.983-1.298c.02477582-.07393113.096185-.12194765.174-.117h10.4l-5.43 5.425-5.1-5.1c-.06122269-.05068273-.07945387-.13686646-.044-.208zm50.867 50.866c-.0701467.0336414-.1540799.0169362-.206-.041l-5.1-5.1 5.422-5.428v10.395c.004731.0774513-.0426869.1485782-.116.174z"/>
</symbol>
<symbol id="icon-location" viewBox="0 0 128 128">
<path d="m80.229 82.863c.231-.376.462-.745.693-1.128 10.389-17.2 15.617-32.246 15.542-44.715a32.464 32.464 0 0 0 -64.927-.011c-.076 12.48 5.153 27.528 15.542 44.726.231.383.462.752.693 1.128-21.872 2.703-36.372 10.52-36.372 19.801 0 11.652 23.1 20.779 52.6 20.779s52.6-9.127 52.6-20.779c0-9.281-14.5-17.098-36.371-19.801zm-45.192-45.843a28.964 28.964 0 1 1 57.927.011c.15 24.858-23.09 55.517-28.964 62.869-5.874-7.352-29.115-38.012-28.963-62.88zm28.963 82.923c-29.371 0-49.1-8.935-49.1-17.279 0-7.4 14.629-14.285 34.934-16.518a185.3 185.3 0 0 0 12.833 17.654 1.748 1.748 0 0 0 2.666 0 185.3 185.3 0 0 0 12.834-17.654c20.3 2.233 34.934 9.114 34.934 16.518-.001 8.344-19.73 17.279-49.101 17.279z"/><path d="m49.692 109.807c-7.766-.994-14-2.744-17.548-4.925a1.75 1.75 0 1 0 -1.833 2.981c3.963 2.436 10.689 4.36 18.937 5.415a1.7 1.7 0 0 0 .224.014 1.75 1.75 0 0 0 .22-3.485z"/><path d="m66.939 110.643c-2.439.056-4.979.043-7.458-.048a1.75 1.75 0 1 0 -.129 3.5c1.538.056 3.1.085 4.648.085q1.527 0 3.021-.036a1.75 1.75 0 0 0 1.709-1.79 1.73 1.73 0 0 0 -1.791-1.711z"/><path d="m78.777 37.02a14.778 14.778 0 1 0 -14.777 14.78 14.795 14.795 0 0 0 14.777-14.78zm-26.055 0a11.278 11.278 0 1 1 11.278 11.28 11.29 11.29 0 0 1 -11.278-11.28z"/>
</symbol>
<symbol id="icon-room" viewBox="0 0 488.928 488.928">
<g>
	<g>
		<path d="M484.312,401.568l-115.8-54.04c-0.16-0.184-0.36-0.336-0.544-0.504c-0.2-0.184-0.4-0.36-0.616-0.528
			c-0.144-0.112-0.264-0.256-0.416-0.36c-0.264-0.176-0.552-0.272-0.832-0.408c-0.152-0.08-0.272-0.192-0.424-0.264l-57.368-24.584
			l-91.288-39.128l25.208-8.4l61.24,25.344h0.008l167.992,69.512c0.976,0.408,2.016,0.608,3.056,0.608
			c1.56,0,3.112-0.456,4.448-1.344c2.216-1.488,3.552-3.984,3.552-6.656v-256c0-3.24-1.952-6.16-4.936-7.392l-64-26.488h-0.008
			L245.592,1.424C245,1.176,244.384,1.016,243.76,0.92c-0.016,0-0.024-0.008-0.04-0.008c-1.2-0.176-2.416-0.056-3.568,0.304
			c-0.048,0.016-0.104,0-0.152,0.016l-240,80l5.064,15.176l229.464-76.496v239.136l-32,10.664v-68.896c0-2.536-1.2-4.92-3.232-6.432
			c-2.04-1.504-4.672-1.968-7.096-1.224l-184,56c-3.368,1.024-5.672,4.136-5.672,7.656v80v48c0,3.08,1.768,5.888,4.544,7.216
			l85.104,40.704l-36.96,16.8c-2.84,1.28-4.664,4.104-4.688,7.216s1.76,5.96,4.576,7.296l48.04,22.76l6.84-14.464L77.52,456.968
			l33.488-15.216l80.056,38.288c0.232,0.112,0.48,0.152,0.712,0.232c0.264,0.096,0.52,0.192,0.792,0.264
			c0.464,0.12,0.936,0.176,1.408,0.208c0.192,0.008,0.368,0.072,0.552,0.072c0.072,0,0.136-0.024,0.2-0.032
			c0.496-0.016,0.976-0.104,1.456-0.208c0.208-0.048,0.424-0.056,0.632-0.12c0.208-0.064,0.408-0.168,0.616-0.248
			c0.08-0.032,0.16-0.016,0.24-0.048l168-72c2.952-1.248,4.856-4.144,4.856-7.344v-34.688l91.272,42.6l-142.584,64.808l6.624,14.56
			l158.4-72c2.84-1.288,4.672-4.12,4.688-7.24C488.944,405.736,487.136,402.888,484.312,401.568z M418.528,288.816v-80v-32V90.304
			l48,19.856v238.68l-48-19.864V288.816z M402.528,322.36l-74.272-30.736l41.704-10.416l32.568,13.024V322.36z M346.528,270.568
			v-63.504l16-4v63.504L346.528,270.568z M402.528,277l-24-9.6v-62.768l12,4.8l12,4.8V277z M402.528,197l-12-4.8l-12-4.8v-14.768
			l24,9.6V197z M314.528,47.264l88,36.416V165l-24-9.6v-26.584h-16v25.752l-48,12V47.264z M314.528,183.064l48-12v15.504l-48,12
			V183.064z M314.528,215.064l16-4v63.504l-16,4V215.064z M250.528,20.784l48,19.864v136.168v32v70.512l-48-19.864V20.784z
			 M194.064,289.32l90.976,38.992l-142.912,62.576L32.544,338.472l12.304-3.744l48.008-14.608l20.448-6.224l11.552-3.512h0.008
			l48-14.608L194.064,289.32z M50.528,316.28v-21.696l32-10.664v22.624L50.528,316.28z M130.528,291.936v-21.352l32-10.664v22.272
			l-13.336,4.056L130.528,291.936z M18.528,262.744l168-51.128v63.28l-8,2.432v-28.512c0-2.568-1.232-4.992-3.32-6.488
			c-2.104-1.512-4.784-1.912-7.208-1.104l-48,16c-3.272,1.096-5.472,4.144-5.472,7.592V296.8l-16,4.872v-28.856
			c0-2.568-1.232-4.984-3.32-6.488c-2.096-1.504-4.776-1.912-7.208-1.104l-48,16c-3.272,1.096-5.472,4.144-5.472,7.592v32.336
			l-16,4.864V262.744z M186.528,460.12l-71.968-34.424h-0.008l-96.024-45.92v-30.264l168,80.344V460.12z M194.712,416.032
			L161.184,400l144.008-63.048l37.024,15.864L194.712,416.032z M354.528,395.544l-152,65.144v-30.592l152-65.144V395.544z"/>
	</g>
</g>
<g>
	<g>
		<path d="M175.208,66.328c-2.104-1.504-4.784-1.92-7.208-1.104l-144,48c-3.272,1.096-5.472,4.144-5.472,7.592v96
			c0,2.568,1.232,4.984,3.32,6.488c1.384,1,3.024,1.512,4.68,1.512c0.848,0,1.704-0.136,2.528-0.408l144-48
			c3.272-1.096,5.472-4.144,5.472-7.592v-96C178.528,70.248,177.296,67.832,175.208,66.328z M162.528,163.056l-128,42.664v-79.136
			l128-42.664V163.056z"/>
	</g>
</g>
<g>
	<g>
		<path d="M132.864,115.152l-28.504,28.512l-19.304-6.44c-2.344-0.768-4.912-0.432-6.968,0.936l-24,16l8.872,13.312l20.744-13.832
			l20.288,6.76c2.872,0.96,6.048,0.2,8.184-1.936l32-32L132.864,115.152z"/>
	</g>
</g>
</symbol>
<symbol id="icon-wallet" viewBox="0 0 38 32">
<path d="M32.509 7.5c0.276 0 0.5-0.224 0.5-0.5v-1.665c0-0.903-0.735-1.638-1.638-1.638h-2.687l-0.613-1.809c-0.086-0.255-0.36-0.397-0.619-0.318l-14.553 4.424c-0.264 0.081-0.413 0.36-0.333 0.624 0.066 0.216 0.264 0.354 0.479 0.354 0.048 0 0.097-0.007 0.146-0.021l14.089-4.284 1.343 3.965c0.089 0.262 0.375 0.404 0.634 0.313 0.262-0.088 0.402-0.373 0.313-0.634l-0.547-1.615h2.349c0.352 0 0.638 0.286 0.638 0.638v1.666c-0.001 0.276 0.223 0.5 0.499 0.5zM36.5 15c-0.276 0-0.5 0.224-0.5 0.5s0.224 0.5 0.5 0.5c0.351 0 0.5 0.149 0.5 0.5v6c0 0.351-0.149 0.5-0.5 0.5h-8c-0.351 0-0.5-0.149-0.5-0.5v-5c0-0.351 0.149-0.5 0.5-0.5h6c0.276 0 0.5-0.224 0.5-0.5v-6c0-0.911-0.589-1.5-1.5-1.5h-30.5c-1.233 0-2-0.767-2-2s0.767-2 2-2h5.076l-3.026 0.998c-0.262 0.086-0.405 0.369-0.319 0.631 0.069 0.21 0.265 0.343 0.475 0.343 0.052 0 0.104-0.008 0.157-0.025l18.119-5.973c0.262-0.087 0.405-0.369 0.318-0.632-0.086-0.262-0.369-0.405-0.632-0.318l-12.1 3.99c-0.023-0.004-0.044-0.014-0.068-0.014h-8c-1.794 0-3 1.206-3 3v22c0 1.794 1.206 3 3 3h30.5c0.911 0 1.5-0.589 1.5-1.5v-5c0-0.276-0.224-0.5-0.5-0.5s-0.5 0.224-0.5 0.5v5c0 0.351-0.149 0.5-0.5 0.5h-30.5c-1.233 0-2-0.767-2-2v-19.688c0.513 0.433 1.192 0.688 2 0.688h30.5c0.351 0 0.5 0.149 0.5 0.5v5.5h-5.5c-0.911 0-1.5 0.589-1.5 1.5v5c0 0.911 0.589 1.5 1.5 1.5h8c0.911 0 1.5-0.589 1.5-1.5v-6c0-0.911-0.589-1.5-1.5-1.5zM31 20c0 0.552 0.448 1 1 1s1-0.448 1-1c0-0.552-0.448-1-1-1s-1 0.448-1 1z"></path>
</symbol>
<symbol id="icon-heart" viewBox="0 0 512 512">
	<path d="M376,30c-27.783,0-53.255,8.804-75.707,26.168c-21.525,16.647-35.856,37.85-44.293,53.268
			c-8.437-15.419-22.768-36.621-44.293-53.268C189.255,38.804,163.783,30,136,30C58.468,30,0,93.417,0,177.514
			c0,90.854,72.943,153.015,183.369,247.118c18.752,15.981,40.007,34.095,62.099,53.414C248.38,480.596,252.12,482,256,482
			s7.62-1.404,10.532-3.953c22.094-19.322,43.348-37.435,62.111-53.425C439.057,330.529,512,268.368,512,177.514
			C512,93.417,453.532,30,376,30z"/>
</symbol>
<symbol id="icon-home" viewBox="0 0 24 24">
<path d="M2.386 8.211c-0.236 0.184-0.386 0.469-0.386 0.789v11c0 0.828 0.337 1.58 0.879 2.121s1.293 0.879 2.121 0.879h14c0.828 0 1.58-0.337 2.121-0.879s0.879-1.293 0.879-2.121v-11c-0.001-0.3-0.134-0.593-0.386-0.789l-9-7c-0.358-0.275-0.861-0.285-1.228 0zM16 21v-9c0-0.552-0.448-1-1-1h-6c-0.552 0-1 0.448-1 1v9h-3c-0.276 0-0.525-0.111-0.707-0.293s-0.293-0.431-0.293-0.707v-10.511l8-6.222 8 6.222v10.511c0 0.276-0.111 0.525-0.293 0.707s-0.431 0.293-0.707 0.293zM10 21v-8h4v8z"></path>
</symbol>
<symbol id="icon-house" viewBox="0 0 50 50">
<path d="M 24.962891 1.0546875 A 1.0001 1.0001 0 0 0 24.384766 1.2636719 L 1.3847656 19.210938 A 1.0005659 1.0005659 0 0 0 2.6152344 20.789062 L 4 19.708984 L 4 46 A 1.0001 1.0001 0 0 0 5 47 L 18.832031 47 A 1.0001 1.0001 0 0 0 19.158203 47 L 30.832031 47 A 1.0001 1.0001 0 0 0 31.158203 47 L 45 47 A 1.0001 1.0001 0 0 0 46 46 L 46 19.708984 L 47.384766 20.789062 A 1.0005657 1.0005657 0 1 0 48.615234 19.210938 L 41 13.269531 L 41 6 L 35 6 L 35 8.5859375 L 25.615234 1.2636719 A 1.0001 1.0001 0 0 0 24.962891 1.0546875 z M 25 3.3222656 L 44 18.148438 L 44 45 L 32 45 L 32 26 L 18 26 L 18 45 L 6 45 L 6 18.148438 L 25 3.3222656 z M 37 8 L 39 8 L 39 11.708984 L 37 10.146484 L 37 8 z M 20 28 L 30 28 L 30 45 L 20 45 L 20 28 z"/>
</symbol>
<symbol id="icon-presentation" viewBox="0 0 31 32">
<path d="M0.5 3c-0.276 0-0.5 0.224-0.5 0.5v17c0 0.827 0.673 1.5 1.5 1.5h28c0.827 0 1.5-0.673 1.5-1.5v-17c0-0.276-0.224-0.5-0.5-0.5s-0.5 0.224-0.5 0.5v17c0 0.276-0.224 0.5-0.5 0.5h-28c-0.276 0-0.5-0.224-0.5-0.5v-17c0-0.276-0.224-0.5-0.5-0.5zM32.5 0h-34c-0.276 0-0.5 0.224-0.5 0.5s0.224 0.5 0.5 0.5h34c0.276 0 0.5-0.224 0.5-0.5s-0.224-0.5-0.5-0.5zM11.854 8.146c-0.183-0.183-0.475-0.196-0.674-0.031l-6 5c-0.212 0.177-0.241 0.492-0.064 0.705 0.177 0.212 0.491 0.241 0.705 0.064l5.649-4.708 5.677 5.677c0.097 0.098 0.225 0.147 0.353 0.147s0.256-0.049 0.354-0.146l7.146-7.147v3.793c0 0.276 0.224 0.5 0.5 0.5s0.5-0.224 0.5-0.5v-5c0-0.065-0.013-0.13-0.038-0.191-0.051-0.122-0.148-0.22-0.271-0.271-0.061-0.025-0.126-0.038-0.191-0.038h-5c-0.276 0-0.5 0.224-0.5 0.5s0.224 0.5 0.5 0.5h3.793l-6.793 6.793-5.646-5.647zM8.057 31.732c0.128 0.245 0.43 0.339 0.675 0.211l6.768-3.545 6.768 3.545c0.074 0.039 0.153 0.057 0.232 0.057 0.18 0 0.354-0.098 0.443-0.268 0.128-0.245 0.034-0.547-0.211-0.675l-6.893-3.61c0.098-0.091 0.161-0.219 0.161-0.364v-2.583c0-0.276-0.224-0.5-0.5-0.5s-0.5 0.224-0.5 0.5v2.583c0 0.144 0.063 0.272 0.161 0.363l-6.893 3.61c-0.245 0.129-0.339 0.431-0.211 0.676z"></path>
</symbol>
<symbol id="icon-bargraph" viewBox="0 0 36 32">
<path d="M26 10.5v20c0 0.176 0.036 0.343 0.092 0.5h-3.184c0.056-0.157 0.092-0.324 0.092-0.5v-29c0-0.827-0.673-1.5-1.5-1.5h-7c-0.827 0-1.5 0.673-1.5 1.5v29c0 0.176 0.036 0.343 0.092 0.5h-3.184c0.056-0.157 0.092-0.324 0.092-0.5v-11c0-0.827-0.673-1.5-1.5-1.5h-7c-0.827 0-1.5 0.673-1.5 1.5v11c0 0.827 0.673 1.5 1.5 1.5h33c0.827 0 1.5-0.673 1.5-1.5v-20c0-0.827-0.673-1.5-1.5-1.5h-7c-0.827 0-1.5 0.673-1.5 1.5zM5 31h-3.5c-0.275 0-0.5-0.224-0.5-0.5v-11c0-0.276 0.225-0.5 0.5-0.5h7c0.275 0 0.5 0.224 0.5 0.5v11c0 0.276-0.225 0.5-0.5 0.5h-3.5zM14.5 31c-0.275 0-0.5-0.224-0.5-0.5v-29c0-0.276 0.225-0.5 0.5-0.5h7c0.275 0 0.5 0.224 0.5 0.5v29c0 0.276-0.225 0.5-0.5 0.5h-7zM35 10.5v20c0 0.276-0.225 0.5-0.5 0.5h-7c-0.275 0-0.5-0.224-0.5-0.5v-20c0-0.276 0.225-0.5 0.5-0.5h7c0.275 0 0.5 0.224 0.5 0.5z"></path>
</symbol>
<symbol id="icon-lock" viewBox="0 0 28 32">
<path d="M14 0c-5.514 0-10 4.486-10 10v3h-1.5c-1.378 0-2.5 1.122-2.5 2.5v14c0 1.378 1.122 2.5 2.5 2.5h23c1.378 0 2.5-1.122 2.5-2.5v-14c0-1.378-1.122-2.5-2.5-2.5h-1.5v-3c0-5.514-4.486-10-10-10zM5 10c0-4.962 4.038-9 9-9s9 4.038 9 9v3h-3v-3c0-3.309-2.691-6-6-6s-6 2.691-6 6v3h-3v-3zM19 13h-10v-3c0-2.757 2.243-5 5-5s5 2.243 5 5v3zM12.293 21l-5 5h-4.586l5-5h4.586zM18.293 21l-5 5h-4.586l5-5h4.586zM24.293 21l-5 5h-4.586l5-5h4.586zM27 21v5h-6.293l5-5h1.293zM1.293 26h-0.293v-5h5.293l-5 5zM25.5 31h-23c-0.827 0-1.5-0.673-1.5-1.5v-2.5h26v2.5c0 0.827-0.673 1.5-1.5 1.5zM27 15.5v4.5h-26v-4.5c0-0.827 0.673-1.5 1.5-1.5h23c0.827 0 1.5 0.673 1.5 1.5z"></path>
</symbol>
<symbol id="icon-map" viewBox="0 0 41 32">
<path d="M9.239 31.927c0.009 0.006 0.021 0.003 0.030 0.009 0.073 0.037 0.149 0.064 0.231 0.064 0.044 0 0.088-0.006 0.132-0.018l10.868-2.966 10.868 2.966c0.044 0.012 0.088 0.018 0.132 0.018 0.082 0 0.158-0.027 0.23-0.065 0.010-0.005 0.021-0.003 0.030-0.009l9-5.5c0.191-0.117 0.281-0.348 0.22-0.563l-4.984-17.5c-0.041-0.147-0.148-0.267-0.29-0.326-0.142-0.057-0.301-0.048-0.436 0.026l-4.962 2.784c-0.24 0.135-0.326 0.44-0.191 0.681s0.439 0.327 0.682 0.191l4.409-2.475 4.707 16.526-8.015 4.899-1.904-15.231c-0.034-0.275-0.293-0.466-0.559-0.434-0.273 0.034-0.468 0.284-0.434 0.558l1.907 15.259-9.91-2.705v-2.73c0-0.276-0.224-0.5-0.5-0.5s-0.5 0.224-0.5 0.5v2.73l-9.911 2.705 1.907-15.259c0.034-0.274-0.16-0.524-0.434-0.558-0.272-0.032-0.524 0.159-0.559 0.434l-1.903 15.231-8.015-4.898 4.707-16.525 4.409 2.475c0.242 0.134 0.546 0.049 0.682-0.191 0.135-0.241 0.049-0.545-0.191-0.681l-4.963-2.785c-0.133-0.075-0.292-0.085-0.435-0.026s-0.249 0.178-0.29 0.326l-4.984 17.5c-0.062 0.216 0.028 0.446 0.22 0.563l8.999 5.5zM20.161 23.368c0.096 0.088 0.217 0.132 0.339 0.132 0.12 0 0.24-0.043 0.336-0.129 0.333-0.303 8.164-7.489 8.164-14.871 0-4.767-3.733-8.5-8.5-8.5s-8.5 3.733-8.5 8.5c0 7.254 7.828 14.56 8.161 14.868zM20.5 1c4.275 0 7.5 3.224 7.5 7.5 0 6.097-5.993 12.337-7.497 13.807-1.501-1.487-7.503-7.809-7.503-13.807 0-4.276 3.225-7.5 7.5-7.5zM25 8.5c0-2.481-2.019-4.5-4.5-4.5s-4.5 2.019-4.5 4.5 2.019 4.5 4.5 4.5 4.5-2.019 4.5-4.5zM20.5 12c-1.93 0-3.5-1.57-3.5-3.5s1.57-3.5 3.5-3.5 3.5 1.57 3.5 3.5-1.57 3.5-3.5 3.5z"></path>
</symbol>
<symbol id="icon-trophy" viewBox="0 0 34 32">
<path d="M25.5 1c0.276 0 0.5-0.224 0.5-0.5s-0.224-0.5-0.5-0.5h-17c-0.276 0-0.5 0.224-0.5 0.5s0.224 0.5 0.5 0.5h17zM25.5 2h-19c-3.283 0-4.813 1.166-5.519 2.144-0.864 1.2-1.026 2.803-0.456 4.514 0.882 2.646 3.846 5.825 5.668 7.237 0.092 0.071 0.2 0.105 0.307 0.105 0.149 0 0.297-0.066 0.396-0.194 0.169-0.218 0.129-0.532-0.089-0.702-1.674-1.296-4.525-4.342-5.332-6.763-0.467-1.397-0.354-2.68 0.318-3.612 0.815-1.131 2.442-1.729 4.707-1.729h1.5v9.5c0 6.726 6.673 10.601 8.036 11.322-0.021 0.056-0.036 0.115-0.036 0.178v2.5c0 0.276 0.224 0.5 0.5 0.5s0.5-0.224 0.5-0.5v-2.5c0-0.058-0.015-0.112-0.033-0.164 1.514-0.712 9.033-4.586 9.033-11.336v-9.5h1.5c2.265 0 3.892 0.598 4.707 1.729 0.672 0.932 0.785 2.215 0.318 3.613-0.63 1.891-3.769 5.553-5.332 6.763-0.218 0.169-0.258 0.483-0.089 0.702 0.099 0.127 0.247 0.193 0.396 0.193 0.107 0 0.215-0.034 0.307-0.104 1.732-1.342 4.961-5.119 5.668-7.237 0.57-1.711 0.408-3.314-0.456-4.514-0.706-0.979-2.236-2.145-5.519-2.145h-2zM25 12.5c0 6.093-7.152 9.804-8.486 10.443-1.228-0.665-7.514-4.367-7.514-10.443v-9.5h16v9.5zM11 28c-1.141 0-2 0.86-2 2v1.5c0 0.276 0.224 0.5 0.5 0.5h14c0.276 0 0.5-0.224 0.5-0.5v-1.425c0-1.163-0.879-2.075-2-2.075h-11zM23 30.075v0.925h-13v-1c0-0.589 0.411-1 1-1h11c0.57 0 1 0.462 1 1.075z"></path>
</symbol>
<symbol id="icon-global" viewBox="0 0 32 32">
<path d="M0.034 16.668c0.354 8.511 7.369 15.332 15.966 15.332s15.612-6.821 15.966-15.332c0.019-0.053 0.034-0.108 0.034-0.168 0-0.036-0.013-0.067-0.020-0.1 0.003-0.134 0.020-0.265 0.020-0.4 0-8.822-7.178-16-16-16s-16 7.178-16 16c0 0.135 0.017 0.266 0.020 0.4-0.007 0.033-0.020 0.064-0.020 0.1 0 0.060 0.015 0.115 0.034 0.168zM24.921 22.742c-1.319-0.552-2.735-0.979-4.215-1.271 0.158-1.453 0.251-2.962 0.28-4.47h4.98c-0.091 2.054-0.456 3.993-1.045 5.741zM26.965 17h3.984c-0.186 2.806-1.138 5.403-2.663 7.579-0.759-0.533-1.577-1.019-2.457-1.44 0.645-1.869 1.042-3.943 1.136-6.139zM12.389 22.286c1.178-0.184 2.387-0.286 3.611-0.286s2.433 0.102 3.61 0.286c-0.694 5.335-2.21 8.714-3.61 8.714s-2.916-3.379-3.611-8.714zM13.908 30.664c-2.751-0.882-5.078-3.471-6.482-6.984 1.246-0.525 2.586-0.935 3.99-1.217 0.459 3.496 1.298 6.542 2.492 8.201zM12.274 10.709c1.217 0.188 2.465 0.291 3.726 0.291s2.509-0.103 3.726-0.291c0.172 1.62 0.274 3.388 0.274 5.291h-8c0-1.903 0.102-3.671 0.274-5.291zM19.985 17c-0.028 1.525-0.118 2.961-0.26 4.291-1.216-0.188-2.463-0.291-3.725-0.291s-2.509 0.103-3.726 0.291c-0.173-1.626-0.237-3.057-0.26-4.291h7.971zM20.585 22.463c1.404 0.282 2.743 0.692 3.99 1.217-1.404 3.513-3.731 6.102-6.482 6.984 1.193-1.659 2.032-4.705 2.492-8.201zM21 16c0-1.836-0.102-3.696-0.294-5.47 1.48-0.292 2.896-0.72 4.215-1.271 0.684 2.029 1.079 4.315 1.079 6.741h-5zM20.585 9.537c-0.46-3.496-1.298-6.543-2.493-8.201 2.751 0.882 5.078 3.471 6.482 6.984-1.246 0.525-2.585 0.936-3.989 1.217zM19.611 9.714c-1.178 0.184-2.387 0.286-3.611 0.286s-2.433-0.102-3.611-0.286c0.695-5.335 2.211-8.714 3.611-8.714s2.916 3.379 3.611 8.714zM11.415 9.537c-1.404-0.282-2.743-0.692-3.99-1.217 1.404-3.513 3.731-6.102 6.482-6.984-1.193 1.659-2.032 4.705-2.492 8.201zM11.294 10.53c-0.192 1.774-0.294 3.634-0.294 5.47h-5c0-2.426 0.395-4.712 1.079-6.742 1.319 0.552 2.735 0.979 4.215 1.272zM11.014 17c0.029 1.508 0.122 3.017 0.28 4.471-1.48 0.292-2.896 0.72-4.215 1.271-0.589-1.748-0.954-3.687-1.045-5.742h4.98zM6.17 23.139c-0.88 0.422-1.697 0.907-2.456 1.44-1.525-2.176-2.477-4.772-2.663-7.579h3.984c0.094 2.196 0.491 4.27 1.135 6.139zM4.313 25.38c0.685-0.479 1.417-0.922 2.207-1.305 1.004 2.485 2.449 4.548 4.186 5.943-2.526-0.958-4.729-2.568-6.393-4.638zM21.294 30.017c1.738-1.394 3.182-3.458 4.186-5.943 0.79 0.384 1.522 0.826 2.207 1.305-1.664 2.071-3.867 3.681-6.393 4.638zM27 16c0-2.567-0.428-4.987-1.17-7.139 0.88-0.422 1.698-0.907 2.457-1.44 1.704 2.434 2.713 5.389 2.713 8.579h-4zM27.688 6.62c-0.685 0.479-1.417 0.921-2.207 1.305-1.004-2.485-2.449-4.549-4.186-5.943 2.525 0.958 4.728 2.568 6.393 4.638zM10.706 1.983c-1.738 1.394-3.182 3.458-4.186 5.943-0.791-0.384-1.522-0.827-2.207-1.306 1.664-2.070 3.867-3.68 6.393-4.637zM3.714 7.421c0.758 0.533 1.576 1.018 2.456 1.44-0.742 2.152-1.17 4.572-1.17 7.139h-4c0-3.19 1.009-6.145 2.714-8.579z"></path>
</symbol>
</defs>
</svg>
